<svg width="483" height="457" viewBox="0 0 483 457" fill="none" xmlns="http://www.w3.org/2000/svg">
<path d="M241.5 0C373.039 0 480.014 105.163 482.938 236H483V419H482.978C482.676 425.883 479.428 432.454 473.823 436.879C469.469 440.333 464.163 442.096 458.834 442.096C454.833 442.096 450.816 441.105 447.169 439.093C433.42 431.502 419.106 427.653 404.625 427.653C383.268 427.653 362.426 435.728 345.932 450.402C341.384 454.451 335.644 456.504 329.88 456.504C324.913 456.504 319.93 454.975 315.68 451.884C314.349 450.916 313.003 449.979 311.644 449.07C293.567 435.891 268.809 427.764 241.5 427.764C214.39 427.764 189.795 435.772 171.754 448.782C170.253 449.777 168.768 450.808 167.302 451.874C163.051 454.965 158.068 456.495 153.102 456.495C147.346 456.495 141.607 454.442 137.051 450.394C120.556 435.726 99.7141 427.644 78.3574 427.644C63.8749 427.644 49.562 431.492 35.8125 439.083C32.1655 441.095 28.1483 442.086 24.1475 442.086C18.8187 442.086 13.522 440.323 9.15918 436.878C3.5719 432.453 0.327827 425.883 0.0234375 419H0V236H0.0625C2.98623 105.163 109.961 0 241.5 0ZM156.254 154.803C153.414 150.643 147.577 150.635 144.727 154.788C127.663 179.654 100 233.498 100 258.375C100 286.335 122.614 309 150.5 309C178.386 309 201 286.335 201 258.375C201 233.534 173.135 179.527 156.254 154.803ZM337.254 154.803C334.414 150.643 328.577 150.635 325.727 154.788C308.663 179.654 281 233.498 281 258.375C281 286.335 303.614 309 331.5 309C359.386 309 382 286.335 382 258.375C382 233.534 354.135 179.527 337.254 154.803Z" fill="#D9D9D9"/>
</svg>
